<?xml version="1.0" standalone="no"?>
<!DOCTYPE svg PUBLIC "-//W3C//DTD SVG 20010904//EN"
 "http://www.w3.org/TR/2001/REC-SVG-20010904/DTD/svg10.dtd">
<svg version="1.0" xmlns="http://www.w3.org/2000/svg"
 width="384.000000pt" height="384.000000pt" viewBox="0 0 384.000000 384.000000"
 preserveAspectRatio="xMidYMid meet">
<metadata>
Created by potrace 1.11, written by Peter Selinger 2001-2013
</metadata>
<g transform="translate(0.000000,384.000000) scale(0.100000,-0.100000)"
fill="#000000" stroke="none">
<path d="M1223 3765 c-157 -47 -246 -202 -245 -430 0 -76 8 -188 16 -230 2
-11 11 -54 20 -95 9 -41 12 -77 8 -81 -4 -4 -52 -21 -106 -39 -54 -18 -135
-51 -180 -73 -523 -261 -436 -665 189 -876 55 -19 101 -35 103 -36 1 -1 -6
-44 -17 -96 -68 -335 -27 -580 114 -691 68 -53 200 -72 308 -43 117 31 276
125 410 245 37 33 72 60 77 60 6 0 18 -8 28 -18 159 -153 362 -276 500 -303
248 -48 411 122 415 431 0 72 -8 175 -18 230 -1 8 -7 40 -13 70 -6 31 -13 67
-17 82 -6 25 -4 27 77 53 200 66 360 156 449 253 234 256 62 544 -423 707 -54
18 -101 35 -103 37 -2 2 3 34 11 72 8 38 17 89 20 115 3 25 7 57 9 71 9 47 6
215 -4 270 -61 336 -308 419 -646 216 -59 -35 -195 -139 -248 -190 l-38 -37
-77 68 c-140 124 -273 207 -396 248 -64 21 -170 26 -223 10z m159 -136 c103
-21 247 -110 388 -238 l55 -50 -21 -23 c-11 -13 -33 -36 -48 -53 -15 -16 -64
-78 -109 -137 -71 -94 -86 -108 -112 -109 -59 -2 -178 -17 -225 -29 -19 -5
-51 -11 -70 -14 -19 -3 -45 -8 -57 -10 -13 -3 -22 -2 -21 2 1 4 -4 32 -10 61
-56 249 -42 469 36 553 51 55 99 67 194 47z m1242 -19 c71 -49 108 -170 100
-338 -4 -94 -37 -290 -51 -303 -5 -4 -37 -1 -72 6 -65 14 -90 18 -240 38 l-85
12 -65 86 c-37 48 -94 118 -128 157 l-63 70 48 45 c26 25 63 58 82 73 19 16
37 31 40 34 3 3 30 22 60 42 161 104 293 132 374 78z m-628 -462 c37 -46 73
-90 80 -98 11 -13 -6 -15 -144 -13 -86 1 -161 2 -166 3 -15 0 139 190 155 190
4 0 38 -37 75 -82z m171 -256 c25 -6 41 -21 74 -72 53 -82 179 -302 203 -355
10 -22 20 -43 22 -46 7 -13 -126 -254 -224 -406 -38 -57 -53 -72 -77 -77 -16
-2 -139 -4 -272 -3 -229 2 -243 3 -257 22 -41 56 -147 234 -203 341 l-63 120
61 115 c33 63 94 169 136 236 62 98 82 123 102 126 47 6 466 6 498 -1z m-762
-127 c-36 -58 -65 -107 -65 -109 0 -3 -10 -21 -21 -41 l-22 -36 -17 38 c-25
55 -73 204 -68 209 5 4 210 41 240 43 13 1 2 -24 -47 -104z m1095 90 c8 -2 31
-7 50 -10 19 -3 47 -8 62 -11 l27 -5 -34 -92 c-18 -51 -40 -107 -48 -126 l-14
-33 -53 98 c-29 55 -66 118 -81 141 -16 23 -29 44 -29 48 0 6 88 -1 120 -10z
m-1395 -160 c17 -50 50 -133 71 -185 l40 -95 -43 -100 c-23 -55 -54 -136 -69
-180 -14 -44 -30 -84 -34 -88 -20 -23 -305 101 -406 175 -62 46 -123 125 -125
162 -7 95 39 170 146 243 82 56 350 169 379 160 4 -2 23 -43 41 -92z m1799 53
c176 -64 323 -161 372 -244 72 -122 -3 -244 -216 -353 -52 -27 -137 -64 -188
-81 -90 -32 -93 -32 -107 -14 -8 11 -15 26 -15 34 0 8 -28 85 -63 171 l-63
156 37 86 c21 47 52 125 69 174 17 48 33 94 35 101 6 15 30 10 139 -30z m-299
-654 l34 -92 -37 -6 c-65 -11 -96 -16 -132 -22 -77 -14 -90 -15 -90 -11 0 3
28 52 62 109 34 56 70 121 81 142 l19 40 15 -35 c8 -19 30 -75 48 -125z
m-1277 101 c12 -25 47 -86 77 -136 30 -50 55 -92 55 -95 0 -5 -66 1 -115 11
-11 2 -41 7 -66 10 -74 11 -75 14 -47 91 47 128 62 164 68 164 3 0 16 -20 28
-45z m-61 -345 c37 -6 69 -13 72 -14 3 -2 33 -7 66 -10 33 -4 69 -8 80 -10 11
-3 34 -5 51 -5 25 -1 37 -9 60 -43 34 -49 108 -142 179 -223 l49 -57 -49 -44
c-126 -113 -274 -210 -360 -236 -99 -29 -161 -21 -216 29 -86 77 -105 271 -53
533 20 98 21 103 40 96 8 -3 45 -11 81 -16z m1410 7 c1 -7 8 -46 16 -87 51
-250 37 -430 -40 -520 -73 -84 -198 -77 -366 23 -69 42 -258 193 -264 212 -2
6 7 21 20 35 51 56 135 159 181 223 45 60 53 67 85 68 20 0 43 2 51 3 15 3 97
15 155 22 17 2 53 10 80 17 67 17 82 18 82 4z m-597 -68 c0 -6 -38 -58 -50
-69 -3 -3 -27 -31 -54 -62 -27 -32 -52 -58 -56 -58 -9 0 -160 178 -160 188 0
4 72 7 160 7 88 0 160 -3 160 -6z"/>
<path d="M1873 2689 c-268 -50 -315 -412 -67 -526 189 -86 398 54 390 262 -6
167 -161 294 -323 264z"/>
<path d="M480 480 l0 -390 45 0 44 0 3 147 3 147 70 1 c39 1 77 -2 86 -7 9 -4
60 -75 114 -158 l97 -150 60 0 c48 0 59 3 55 15 -3 8 -47 75 -97 150 -105 157
-107 160 -82 162 71 5 152 81 177 165 23 79 -11 199 -73 254 -48 42 -101 51
-309 53 l-193 1 0 -390z m393 273 c102 -60 102 -196 -1 -256 -27 -16 -55 -20
-155 -21 -67 -1 -128 0 -134 2 -10 3 -13 41 -13 146 0 79 2 145 5 147 2 3 63
4 135 3 107 -2 136 -6 163 -21z"/>
<path d="M3123 730 l2 -79 -45 -3 c-44 -3 -45 -4 -48 -40 l-3 -38 49 0 48 0
-1 -197 c0 -109 4 -215 8 -236 15 -61 65 -85 163 -78 12 0 31 9 43 18 19 16
20 21 9 51 -13 33 -22 39 -33 22 -17 -27 -93 -1 -96 33 -4 40 -4 355 -1 370 4
14 15 17 61 17 54 0 57 1 55 23 -1 12 -3 32 -3 45 -1 20 -6 22 -60 22 l-59 0
0 53 c0 103 3 97 -46 97 l-44 0 1 -80z"/>
<path d="M2688 656 c-49 -13 -62 -21 -116 -70 -114 -105 -115 -330 -1 -444 59
-60 103 -77 199 -77 93 0 139 17 192 70 l27 26 -32 28 c-31 28 -31 28 -51 9
-76 -72 -181 -72 -258 0 -21 20 -45 55 -53 77 -17 49 -12 162 8 201 55 105
198 137 282 63 l35 -31 29 24 c36 28 38 38 8 66 -59 56 -178 81 -269 58z"/>
<path d="M1354 640 c-131 -52 -203 -210 -169 -370 26 -124 150 -218 285 -217
89 0 146 21 229 83 2 2 -6 16 -18 33 l-22 30 -47 -30 c-29 -18 -68 -32 -100
-36 -120 -14 -205 47 -235 167 l-6 26 227 1 c125 1 230 2 234 2 4 1 6 27 4 59
-3 63 -37 149 -78 194 -65 72 -202 98 -304 58z m212 -91 c33 -20 63 -58 69
-87 2 -9 6 -29 10 -44 l7 -28 -186 0 -186 0 0 25 c0 56 60 127 125 150 49 16
121 9 161 -16z"/>
<path d="M1972 634 c-26 -12 -58 -32 -72 -42 -23 -19 -23 -22 -10 -47 21 -38
35 -41 70 -11 39 32 101 49 159 43 95 -11 112 -34 125 -169 3 -36 -6 -49 -19
-28 -14 22 -91 52 -142 55 -168 10 -277 -121 -218 -262 22 -52 42 -72 99 -99
72 -33 159 -28 227 15 58 35 59 36 59 17 0 -18 18 -24 55 -17 l30 6 0 210 c0
232 -6 265 -56 307 -62 52 -221 64 -307 22z m227 -297 c39 -26 41 -30 41 -77
0 -83 -22 -110 -110 -131 -55 -13 -107 0 -146 36 -28 27 -34 39 -34 75 0 23 8
55 17 71 37 63 156 76 232 26z"/>
</g>
</svg>
